<svg xmlns="http://www.w3.org/2000/svg" version="1.1" xmlns:xlink="http://www.w3.org/1999/xlink" width="512" height="512" x="0" y="0" viewBox="0 0 492 492" style="enable-background:new 0 0 512 512" xml:space="preserve" class=""><g><g fill-rule="evenodd" clip-rule="evenodd"><path fill="#ebecff" d="M239.288 100.48a11.896 11.896 0 0 0 13.949 0c17.077-12.343 35.453-21.292 54.6-21.292 11.115 0 21.972 2.149 32.466 6.244 37.231 14.531 61.612 50.656 61.659 90.622v.559c0 24.098-17.595 47.57-21.062 70.134-8.051 52.4-9.167 99.907-32.467 138.995a302.298 302.298 0 0 1-13.493 20.689c-9.643 13.522-30.792 8.704-33.684-7.65-13.243-74.91-32.967-139.698-54.993-139.698-22.029 0-41.751 64.789-54.994 139.7-2.891 16.354-24.039 21.173-33.683 7.652a301.808 301.808 0 0 1-13.497-20.693c-23.3-39.088-24.417-86.595-32.467-138.995-3.467-22.565-21.062-46.037-21.062-70.134v-.557c.047-39.968 24.429-76.093 61.662-90.625 10.494-4.095 21.351-6.244 32.466-6.244 19.146 0 37.523 8.95 54.6 21.293z" opacity="1" data-original="#ebecff" class=""></path><g fill="#6c7188"><path d="M426.298 197.028H66.223a4.282 4.282 0 1 1 0-8.564h360.075a4.282 4.282 0 1 1 0 8.564zM426.298 171.974H66.223a4.282 4.282 0 1 1 0-8.564h360.075a4.282 4.282 0 1 1 0 8.564z" fill="#6c7188" opacity="1" data-original="#6c7188"></path></g><path fill="#1ba6be" d="M211.122 212.551a7.574 7.574 0 0 1 7.575-7.575h55.127a7.574 7.574 0 0 1 7.575 7.575 7.574 7.574 0 0 0 7.575 7.575h23.612a7.574 7.574 0 0 0 7.575-7.575v-64.665a7.575 7.575 0 0 0-7.575-7.575h-23.611a7.574 7.574 0 0 0-7.575 7.575 7.575 7.575 0 0 1-7.575 7.575h-55.128a7.575 7.575 0 0 1-7.575-7.575 7.575 7.575 0 0 0-7.575-7.575h-23.612a7.575 7.575 0 0 0-7.575 7.575v64.664a7.574 7.574 0 0 0 7.575 7.575l23.611.001a7.575 7.575 0 0 0 7.576-7.575z" opacity="1" data-original="#2ab8c6" class=""></path></g></g></svg>