<svg id="Layer_1" enable-background="new 0 0 512 512" height="512" viewBox="0 0 512 512" width="512" xmlns="http://www.w3.org/2000/svg"><g><path clip-rule="evenodd" d="m271.539 306.944c-63.562 209.574-108.995 102.211-114.372-76.257-97.201-125.633-12.64-287.296 123.154-177.85 135.794-109.446 220.355 52.218 123.155 177.849-5.377 178.469-50.81 285.831-114.372 76.257-1.182-3.941-4.673-6.531-8.783-6.531-4.11.001-7.6 2.591-8.782 6.532z" fill="#e7eced" fill-rule="evenodd"/><path d="m290.737 44.927c9.937 7.544 20.043 13.456 30.373 17.959 12.386 5.433 25.081 8.811 37.974 10.528l-1.661 12.555c-14.047-1.858-27.868-5.545-41.38-11.485-12.161-5.292-24.068-12.414-35.722-21.647 3.519-2.843 6.981-5.433 10.416-7.91z" fill="#d7dadb"/><g clip-rule="evenodd" fill-rule="evenodd"><path d="m217.182 418.557c-34.033 22.576-56.356-66.067-60.015-187.871-77.693-100.41-39.269-223.79 48.586-213.459-73.133 9.289-99.903 121.1-28.459 213.459 2.899 95.765 17.312 171.037 39.888 187.871z" fill="#d7dadb"/><path d="m417.86 276.007c47.038 0 85.406-38.368 85.406-85.406 0-47.066-38.368-85.434-85.406-85.434s-85.406 38.368-85.406 85.434c0 47.038 38.368 85.406 85.406 85.406z" fill="#2cbfae"/><path d="m403.251 140.016h29.219v35.976h35.975v29.219h-35.975v35.947h-29.219v-35.947h-35.947v-29.219h35.947z" fill="#fbf9fd"/><path d="m117.082 0 21.534 42.787 42.787 21.535-42.787 21.534-21.534 42.788-21.535-42.788-42.787-21.534 42.787-21.535z" fill="#b2caec"/><path d="m438.522 395.334c8.698 17.931 1.126 39.719-16.805 48.417-185.619 89.994-149.756 93.4-336.839-4.194h-21.562v-137.089h108.32c34.906 26.939 69.839 53.878 104.745 80.818 14.103 10.866 17.96 30.261 9.965 45.546l103.731-50.303c17.959-8.699 39.747-1.155 48.445 16.805z" fill="#ffe0cc"/></g><path d="m168.37 392.322-5.489-4.222 8.473-10.978 73.865 57.003c6.39 4.926 14.216 6.784 21.675 5.827 7.431-.957 14.525-4.757 19.451-11.119l22.492-10.922c-1.154 2.139-2.562 4.645-3.969 7.094-3.012 5.236-6.277 10.612-7.544 12.301-7.263 9.402-17.706 14.976-28.713 16.383-10.95 1.408-22.463-1.323-31.865-8.586z" fill="#ffbcab"/><path clip-rule="evenodd" d="m8.734 277.584h76.145v186.829h-76.145z" fill="#2cbfae" fill-rule="evenodd"/></g></svg>