<svg id="Layer_1" enable-background="new 0 0 512 512" height="512" viewBox="0 0 512 512" width="512" xmlns="http://www.w3.org/2000/svg"><g><g clip-rule="evenodd" fill-rule="evenodd"><path d="m40.433 512h313.157v-63.01c0-61.757-51.877-112.264-115.266-112.264h-82.654c-63.389 0-115.237 50.507-115.237 112.264z" fill="#e4e3ff"/><path d="m150.483 245.153h93.029v90.668c0 25.589-20.926 46.515-46.515 46.515-25.589 0-46.515-20.926-46.515-46.515v-90.668z" fill="#ffe0cc"/><path d="m150.483 245.153h93.029v71.899c-5.275 2.652-10.842 4.925-16.671 6.791-10.171 3.206-20.751 4.867-31.418 4.867-10.696 0-21.275-1.661-31.447-4.867-4.663-1.486-9.151-3.235-13.494-5.246v-73.444z" fill="#f2c3a4"/><path d="m243.016 15.145c58.726 0 93.554 47.389 93.554 121.095 0 73.735-47.593 133.482-106.29 133.482-10.987 0-21.596-2.098-31.563-5.975-10.288 3.876-21.159 5.975-32.438 5.975-61.874 0-112.031-62.981-112.031-140.68 0-96.352 103.754-160.936 172.185-112.643 5.508-.816 11.075-1.254 16.583-1.254z" fill="#2f4959"/><path d="m235.992 108.728c16.875 23.345 40.365 43.25 65.196 55.52.321 4.372.525 8.772.525 13.261 0 73.706-47.593 133.452-106.29 133.452-58.726 0-106.319-59.746-106.319-133.452 0-9.181.758-18.128 2.157-26.784 38.879.729 83.411-17.778 113.576-45.232 4.605-4.168 10.142-5.975 16.292-5.333 6.178.641 11.22 3.555 14.863 8.568z" fill="#ffe0cc"/><path d="m150.483 319.617 46.515 159.158 46.515-159.158 40.307 20.168-23.374 34.711 25.414 29.144-53.19 108.36c-23.782 0-47.564 0-71.346 0l-53.159-108.359 25.385-29.144-23.374-34.711z" fill="#2cbfae"/><path d="m53.402 94.389h275.036c8.277 0 15.068 6.762 15.068 15.039 0 8.277-6.791 15.068-15.068 15.068h-275.036c-8.277 0-15.068-6.791-15.068-15.068.001-8.277 6.791-15.039 15.068-15.039z" fill="#2cbfae"/><path d="m148.53 156.991c26.172 0 47.564-21.363 47.564-47.564s-21.392-47.564-47.564-47.564c-26.201 0-47.564 21.363-47.564 47.564s21.363 47.564 47.564 47.564z" fill="#c9ceed"/><path d="m148.53 129.45c11.017 0 20.022-8.976 20.022-20.022 0-11.017-9.006-20.022-20.022-20.022-11.046 0-20.022 9.006-20.022 20.022 0 11.045 8.976 20.022 20.022 20.022z" fill="#6b70a3"/></g><path d="m70.248 472.101h-7.199v-14.397h46.719v14.397z" fill="#c9ceed"/><path clip-rule="evenodd" d="m387.777 493.027c47.301 0 85.889-38.587 85.889-85.918 0-47.301-38.587-85.889-85.889-85.889-47.331 0-85.918 38.587-85.918 85.889 0 47.331 38.587 85.918 85.918 85.918z" fill="#c9ceed" fill-rule="evenodd"/><path clip-rule="evenodd" d="m196.997 478.775 31.913-109.175c-8.335 7.898-19.585 12.736-31.913 12.736s-23.549-4.838-31.913-12.736z" fill="#c9ceed" fill-rule="evenodd"/><path clip-rule="evenodd" d="m385.27 432.173c-18.186 59.921-31.185 29.203-32.7-21.829-27.804-35.906-3.614-82.129 35.206-50.828 38.82-31.301 63.01 14.922 35.206 50.828-1.545 51.032-14.514 81.75-32.7 21.829-.35-1.137-1.341-1.865-2.506-1.865-1.194 0-2.185.729-2.506 1.865z" fill="#fff" fill-rule="evenodd"/><path d="m393.372 355.465c2.39 2.128 4.867 3.876 7.432 5.275 3.264 1.807 6.645 3.031 10.113 3.818l-1.486 6.587c-4.08-.933-8.073-2.361-11.891-4.488-3.381-1.836-6.645-4.197-9.763-7.14 1.894-1.545 3.759-2.886 5.595-4.052z" fill="#e7eced"/></g></svg>