<svg xmlns="http://www.w3.org/2000/svg" version="1.1" xmlns:xlink="http://www.w3.org/1999/xlink" width="512" height="512" x="0" y="0" viewBox="0 0 492 492" style="enable-background:new 0 0 512 512" xml:space="preserve" class=""><g><path fill="#ebecff" fill-rule="evenodd" d="M238.465 149.912a13.547 13.547 0 0 0 15.595 0c14.791-10.429 30.648-17.876 47.147-17.876 9.918 0 19.606 1.918 28.97 5.572 33.21 12.962 54.975 45.179 55.02 80.829v.534c0 21.503-15.7 42.447-18.794 62.582-7.184 46.758-8.18 89.15-28.971 124.029a269.58 269.58 0 0 1-12.04 18.461c-8.605 12.066-27.477 7.767-30.057-6.827-11.818-66.844-29.417-124.656-49.071-124.656-19.657 0-37.256 57.813-49.072 124.658-2.58 14.593-21.451 18.893-30.057 6.828a269.933 269.933 0 0 1-12.044-18.464c-20.792-34.879-21.787-77.27-28.971-124.028-3.094-20.135-18.794-41.079-18.794-62.582v-.532c.044-35.651 21.811-67.87 55.022-80.831 9.364-3.655 19.052-5.572 28.971-5.572 16.498-.001 32.355 7.446 47.146 17.875z" clip-rule="evenodd" opacity="1" data-original="#ebecff" class=""></path><path fill="#1ba6be" fill-rule="evenodd" d="M352.824 218.543c-.012-11.245-3.505-21.979-9.591-30.896-6.085-8.92-14.758-16.021-25.129-19.999-5.684-2.181-11.211-3.241-16.897-3.241-9.054 0-20.799 5.637-34.903 16.758l-6.019 4.744a22.653 22.653 0 0 1-28.044 0l-6.017-4.744c-6.665-5.253-12.8-9.282-18.373-12.073-3.248-1.625-6.303-2.829-9.165-3.608-2.624-.717-5.082-1.077-7.368-1.077-5.686 0-11.214 1.06-16.9 3.241-20.743 7.955-34.695 28.409-34.72 50.895l-.002.428c0 5.647 3.772 14.655 7.419 23.367 4.242 10.132 9.052 21.617 11 34.299 1.594 10.381 2.879 20.41 4.12 30.111 2.044 15.984 3.953 30.896 6.898 44.499.961 4.441 2.032 8.743 3.255 12.896.408 1.385 2.384 1.334 2.721-.07a565.586 565.586 0 0 1 3.869-15.2c2.83-10.481 5.965-20.753 9.402-30.159 5.385-14.738 11.015-26.135 17.205-34.84 13.925-19.575 29.807-23.683 40.678-23.683 10.868 0 26.749 4.107 40.675 23.683 6.191 8.705 11.818 20.099 17.203 34.84 5.091 13.929 9.524 29.755 13.273 45.352.337 1.403 2.315 1.458 2.723.073 4.965-16.877 7.438-36.191 10.15-57.39 1.241-9.701 2.526-19.729 4.12-30.111 1.948-12.682 6.758-24.167 11-34.299 3.647-8.712 7.419-17.72 7.419-23.367v-.203z" clip-rule="evenodd" opacity="1" data-original="#2eb6c7" class=""></path><path fill="#b1b2bd" fill-rule="evenodd" d="M307.56 74.454c.849 3.266-1.589 6.204-4.718 6.207-22.204.034-41.86 8.636-58.422 25.567-14.329 14.648-26.615 35.858-36.57 62.865-9.689 26.275-17.169 58.042-22.18 94.588-4.722 34.419-6.232 65.814-6.692 85.191a566.55 566.55 0 0 0-3.869 15.2c-.337 1.404-2.314 1.455-2.722.07-1.222-4.153-2.293-8.454-3.254-12.896.392-19.374 1.841-52.4 6.817-88.753 4.612-33.687 11.311-63.64 19.911-89.027.918-2.712 1.86-5.373 2.825-7.982 10.423-28.245 23.43-50.454 38.729-66.096 18.468-18.885 40.477-28.48 65.413-28.519h.007c2.2 0 4.171 1.455 4.725 3.585z" clip-rule="evenodd" opacity="1" data-original="#b1b2bd" class=""></path><path fill="#1ba6be" fill-rule="evenodd" d="m344.663 85.193-40.556 1.659c-6.26.256-11.591-4.656-11.848-10.916-.256-6.26 4.656-11.591 10.917-11.848l40.556-1.659c6.26-.256 11.591 4.656 11.848 10.916.255 6.261-4.657 11.592-10.917 11.848z" clip-rule="evenodd" opacity="1" data-original="#2eb6c7" class=""></path></g></svg>