<svg viewBox="0 0 512 512" xmlns="http://www.w3.org/2000/svg"><g id="b" fill="#d4d4d4"><path d="m220.18 310.88c-15.51 12.98-16.74 39.71-31.75 118.11-2.11 11.04-8.71 22.07-19.35 25.72-1.29.44-2.68.84-4.1 1.23 7.93 7.12 18.82 9.83 29.21 7.1 8.95-7.94 15.71-19.04 19.26-30.53 6.66-21.52 4.92-44.59 5.44-67.11s13.79-48.58 28.54-65.61c-5.12-10.36-20.11 5.1-27.26 11.09z"/><path d="m244.72 60.47c-44.31-24.36-102.3-24.14-144.09 4.33s-63.22 85.46-46.55 133.2c12.93 37.02 40.61 63.47 49.38 101.69 9.89 43.08-3.14 172.98 65.76 165.04 8.32-.96-8.14-1.95 0 0s17.66-.03 22.84-6.6c-3.7 7.12-13.69 8.99-21.07 5.87-7.38-3.13-12.55-9.9-16.63-16.8-29.68-50.27-17.65-115.55-40.46-169.29-11.06-26.06-29.89-48.3-40.43-74.57-9.67-24.09-11.89-51.28-5.13-76.34s22.65-47.75 44.53-61.71c21.74-13.88 48.43-18.77 74.16-16.94s50.65 10.03 57.7 12.12z"/><path d="m186.03 202.79c1.16-3.01-1.67-6.52-4.89-6.72s-6.18 2.2-7.49 5.14-1.28 6.31-.89 9.51c2.04 16.59 13.28 31.19 27.61 39.8s31.42 11.73 48.14 11.58c12.15-.11 24.54-1.95 35.33-7.54s19.84-15.35 22.54-27.2c-9.26 10.62-21.07 19.16-34.42 23.69-13.34 4.53-28.23 4.89-41.47.06-10.65-3.88-19.97-10.97-27.36-19.57s-12.9-18.68-17.11-28.76z"/><path d="m358.27 53.82c13.65 3.52 61.27 25.31 61.27 86.54 0 78.72-6.16 66.49-47.51 138.91-9.3 16.28-7.75 45.6-7.75 75.46 0 71.31-49.01 83.22-49.01 96.3 0 5.29 7.87 14.12 18.72 14.12 11.54 0 43.05-17.71 43.05-87.1 0-11.69-.66-23.42-.66-35.11 0-55.53 19.21-66.2 42.58-106.96 56.54-98.61 7.27-186.89-60.69-182.15z"/><path d="m191.07 148.33c-.19-2.77-3.01-4.91-5.78-4.84s-5.28 1.99-6.58 4.44-1.55 5.34-1.28 8.1c.58 5.95 3.59 11.73 8.46 15.19s11.59 4.38 17.01 1.87 9.16-8.53 8.52-14.47"/><path d="m303.28 142.06c-.65-1.72-2.55-2.73-4.39-2.8s-3.61.65-5.24 1.51c-5.41 2.87-9.95 7.74-11.5 13.67s.29 12.85 5.18 16.54c3.69 2.79 8.62 3.52 13.22 3 3.54-.4 7.05-1.5 9.94-3.57s5.14-5.16 5.79-8.66"/></g><g id="c"><g><path d="m310.87 102.61c-50.41-30.98-79.49-56.53-137.23-55.75-95.91 1.3-150.99 107.13-58.33 226.52 23.12 28.8 12.01 191.77 64.29 191.77 30.53 0 38.54-64.14 41.44-104.98 2.02-28.42 12.54-59.12 33.94-59.12s34.28 48.89 35.8 77.31 6.44 86.79 43.21 86.79c50.93 0 40.93-162.21 57.61-182.67 89.06-109.3 52.04-214.93-13.57-231.71-43.22-11.06-96.07 5-114.19 18.08" fill="none" stroke="#383838" stroke-linecap="round" stroke-linejoin="round" stroke-width="10"/><path d="m315.72 200.92c-6.14 30.85-32.9 54.07-64.98 54.07s-59.79-24.05-65.29-55.71" fill="none" stroke="#383838" stroke-linecap="round" stroke-linejoin="round" stroke-width="10"/><g fill="#383838"><circle cx="198.13" cy="156.11" r="16.46"/><circle cx="303.04" cy="156.11" r="16.46"/></g></g></g><g id="d" fill="none" stroke="#383838" stroke-linecap="round" stroke-linejoin="round" stroke-width="10"><path d="m367.54 88.81c9.42-1.16 19.27 1.89 26.4 8.16s11.4 15.66 11.45 25.15"/><path d="m405.02 140.97c.92 6.91.7 13.97-.65 20.81"/><path d="m425.59 52.58c4.41-9.24 8.12-18.82 11.08-28.62"/><path d="m438.86 57.02c7.65-9.34 15.9-18.19 24.68-26.48"/><path d="m451.57 68.01c6.72-6.1 14.13-11.45 22.03-15.91"/></g></svg>