<svg xmlns="http://www.w3.org/2000/svg" version="1.1" xmlns:xlink="http://www.w3.org/1999/xlink" width="512" height="512" x="0" y="0" viewBox="0 0 492 492" style="enable-background:new 0 0 512 512" xml:space="preserve" class=""><g><g fill-rule="evenodd" clip-rule="evenodd"><path fill="#cfd0e8" d="M227.077 431.06h38.366a9.116 9.116 0 0 0 9.091-8.448l12.981-176.784h-82.509l12.981 176.784a9.115 9.115 0 0 0 9.09 8.448z" opacity="1" data-original="#cfd0e8"></path><path fill="#1ba6be" d="m342.387 217.174-8.16 29.642H158.294l-8.161-29.642z" opacity="1" data-original="#b1b2bd" class=""></path><path fill="#ebecff" d="M238.56 81.542a13.292 13.292 0 0 0 15.403 0c15.675-11.135 32.499-19.122 50.01-19.122 10.24 0 20.246 1.946 29.924 5.658 35.163 13.485 58.255 47.509 58.296 85.17v.487c0 22.586-16.491 44.586-19.74 65.735H120.066c-3.249-21.149-19.741-43.149-19.741-65.735v-.486c.041-37.661 23.134-71.685 58.297-85.17 9.68-3.713 19.686-5.659 29.926-5.659 17.513 0 34.337 7.987 50.012 19.122z" opacity="1" data-original="#ebecff" class=""></path></g><path fill="#1ba6be" fill-rule="evenodd" d="M358.911 184.815a2.973 2.973 0 0 1-2.741-4.122c4.257-10.167 8.278-19.771 8.278-26.959l-.001-.457c-.014-12.916-3.868-25.377-11.145-36.034a2.973 2.973 0 0 1 4.911-3.353c7.953 11.647 12.165 25.265 12.18 39.38l.001.46c0 8.385-4.245 18.524-8.739 29.258a2.975 2.975 0 0 1-2.744 1.827zM125.1 156.707h-.001a2.974 2.974 0 0 1-2.972-2.974v-.477a69.662 69.662 0 0 1 12.181-39.365c7.952-11.645 19.059-20.448 32.122-25.457 7.289-2.795 14.731-4.213 22.12-4.213a2.973 2.973 0 1 1 0 5.946c-6.658 0-13.384 1.285-19.991 3.818-11.928 4.574-22.074 12.617-29.34 23.259a63.745 63.745 0 0 0-11.145 36.017v.475a2.975 2.975 0 0 1-2.974 2.971zM304.066 276.263c1.954 7.294-2.374 14.792-9.668 16.746l-89.196 23.9c-7.294 1.954-14.792-2.374-16.746-9.668-1.954-7.294 2.374-14.792 9.669-16.746l89.196-23.9c7.292-1.955 14.79 2.374 16.745 9.668zM300.781 326.945c1.954 7.294-2.374 14.792-9.668 16.746l-82.627 22.14c-7.294 1.954-14.792-2.374-16.746-9.669-1.954-7.294 2.374-14.792 9.668-16.746l82.627-22.14c7.294-1.954 14.792 2.375 16.746 9.669zM297.497 377.627c1.954 7.294-2.374 14.792-9.668 16.746l-76.058 20.38c-7.294 1.954-14.792-2.374-16.746-9.668-1.954-7.294 2.374-14.792 9.668-16.746l76.058-20.38c7.294-1.955 14.791 2.374 16.746 9.668z" clip-rule="evenodd" opacity="1" data-original="#b1b2bd" class=""></path></g></svg>