<svg xmlns="http://www.w3.org/2000/svg" xmlns:xlink="http://www.w3.org/1999/xlink" width="200" zoomAndPan="magnify" viewBox="0 0 150 127.500001" height="170" preserveAspectRatio="xMidYMid meet" version="1.0"><defs><g/><clipPath id="70ec3c3325"><path d="M 71.925781 58.199219 L 98.65625 58.199219 L 98.65625 67.085938 L 71.925781 67.085938 Z M 71.925781 58.199219 " clip-rule="nonzero"/></clipPath><clipPath id="067ec36941"><path d="M 32.839844 3 L 90 3 L 90 90.863281 L 32.839844 90.863281 Z M 32.839844 3 " clip-rule="nonzero"/></clipPath><clipPath id="348332e740"><path d="M 75 3 L 117 3 L 117 90.863281 L 75 90.863281 Z M 75 3 " clip-rule="nonzero"/></clipPath></defs><g clip-path="url(#70ec3c3325)"><path fill="#ffffff" d="M 71.925781 58.199219 L 98.648438 58.199219 L 98.648438 67.085938 L 71.925781 67.085938 Z M 71.925781 58.199219 " fill-opacity="1" fill-rule="nonzero"/></g><g clip-path="url(#067ec36941)"><path fill="#29abe2" d="M 85.773438 69.3125 C 85.773438 69.3125 81.671875 63.726562 78.296875 64.542969 C 76.027344 65.085938 73.324219 66.59375 71.328125 69.476562 C 69.546875 72.015625 68.132812 74.683594 67.152344 77.605469 C 66.191406 80.507812 65.335938 83.460938 64.410156 86.382812 C 64.136719 87.253906 63.777344 88.125 63.414062 88.957031 C 63.085938 89.703125 62.613281 90.375 61.886719 90.84375 L 60.164062 90.863281 C 60.164062 90.84375 60.164062 90.828125 60.164062 90.808594 C 59.65625 90.644531 59.128906 90.5 58.621094 90.28125 C 56.679688 89.484375 55.097656 88.160156 53.664062 86.671875 C 50.832031 83.769531 48.601562 80.414062 46.621094 76.894531 C 40.867188 66.683594 36.949219 55.800781 34.480469 44.371094 C 33.519531 39.890625 32.847656 35.375 32.9375 30.785156 C 33.046875 24.726562 34.496094 18.996094 37.820312 13.859375 C 41.304688 8.4375 46.207031 5.027344 52.613281 3.867188 C 58.4375 2.832031 63.921875 3.828125 69.039062 6.695312 C 71.636719 8.148438 74.121094 9.761719 76.644531 11.320312 C 78.914062 12.71875 81.199219 14.097656 83.722656 15.023438 C 85.375 15.640625 87.082031 16.074219 88.84375 16.164062 C 88.96875 16.164062 89.097656 16.21875 89.222656 16.238281 C 89.222656 16.292969 89.242188 16.328125 89.242188 16.382812 C 88.078125 16.65625 86.9375 17 85.773438 17.199219 C 81.890625 17.871094 78.167969 17.144531 74.574219 15.710938 C 71.890625 14.640625 69.257812 13.445312 66.589844 12.355469 C 64.375 11.449219 62.085938 10.722656 59.671875 10.542969 C 55.28125 10.214844 51.140625 10.941406 47.65625 13.898438 C 45.460938 15.765625 44.046875 18.179688 43.121094 20.882812 C 41.886719 24.492188 41.539062 28.246094 41.742188 32.035156 C 41.867188 34.324219 42.066406 36.589844 42.339844 38.855469 C 42.867188 43.03125 43.71875 47.148438 44.773438 51.210938 C 46.058594 56.179688 47.640625 61.058594 49.78125 65.742188 C 50.925781 68.261719 52.214844 70.710938 53.992188 72.886719 C 54.699219 73.738281 55.460938 74.539062 56.441406 75.101562 C 56.605469 75.191406 56.769531 75.28125 56.933594 75.355469 C 58.257812 75.933594 58.910156 75.789062 59.65625 74.574219 C 60.582031 73.085938 61.414062 71.527344 62.289062 70.003906 C 63.8125 67.335938 65.554688 64.832031 67.859375 62.765625 C 70.691406 60.226562 73.996094 58.71875 77.789062 58.25 C 85.394531 57.757812 85.773438 69.3125 85.773438 69.3125 Z M 85.773438 69.3125 " fill-opacity="1" fill-rule="nonzero"/></g><g clip-path="url(#348332e740)"><path fill="#0071bc" d="M 116.886719 30.695312 C 116.703125 34.414062 116.050781 38.09375 115.214844 41.722656 C 114.453125 45.132812 113.492188 48.507812 112.421875 51.828125 C 112.457031 51.828125 112.09375 53.0625 111.804688 53.695312 C 111.710938 53.96875 111.621094 54.257812 111.511719 54.53125 C 111.457031 54.675781 111.421875 54.820312 111.347656 55.039062 C 111.332031 55.039062 108.117188 66.683594 96.992188 83.445312 C 95.628906 85.476562 93.886719 87.21875 91.855469 88.613281 C 91.128906 89.121094 90.332031 89.558594 89.515625 89.882812 C 87.609375 90.664062 85.921875 90.246094 84.484375 88.796875 C 83.25 87.542969 82.324219 86.054688 81.617188 84.460938 C 80.347656 81.574219 79.148438 78.636719 77.914062 75.734375 C 77.296875 74.285156 76.679688 72.832031 75.71875 71.5625 C 75.574219 71.382812 75.410156 71.199219 75.230469 70.964844 C 76.753906 70.746094 78.097656 71.074219 79.277344 72 C 80.347656 72.816406 81.109375 73.886719 81.78125 75.027344 C 82.617188 76.425781 83.414062 77.859375 84.285156 79.253906 C 84.757812 80.015625 85.355469 80.6875 86.15625 81.140625 C 87.316406 81.8125 88.132812 81.757812 89.132812 80.867188 C 90.585938 79.582031 91.636719 77.964844 92.691406 76.351562 C 99.550781 65.941406 104.199219 51.429688 104.269531 51.375 C 106.085938 45.984375 107.554688 40.488281 108.425781 34.867188 C 108.953125 31.457031 109.207031 28.011719 109.082031 24.546875 C 108.972656 21.699219 108.679688 18.867188 107.609375 16.183594 C 106.574219 13.5 104.796875 11.574219 101.894531 10.851562 C 99.480469 10.25 97.117188 10.503906 94.757812 11.15625 C 92.890625 11.683594 91.019531 12.191406 89.132812 12.574219 C 85.230469 13.335938 81.636719 12.429688 78.351562 10.269531 C 77.261719 9.5625 76.261719 8.726562 75.210938 7.964844 C 75.230469 7.929688 75.246094 7.910156 75.265625 7.875 C 76.101562 7.984375 76.953125 8.09375 77.789062 8.164062 C 80.183594 8.402344 82.542969 8.128906 84.886719 7.65625 C 87.972656 7.039062 90.949219 5.96875 93.941406 5.027344 C 95.957031 4.390625 97.972656 3.792969 100.078125 3.574219 C 105.777344 2.960938 110.804688 4.953125 113.710938 10.632812 C 115.035156 13.226562 115.777344 15.984375 116.230469 18.832031 C 116.902344 22.765625 117.066406 26.738281 116.886719 30.695312 Z M 116.886719 30.695312 " fill-opacity="1" fill-rule="nonzero"/></g><g fill="#737373" fill-opacity="1"><g transform="translate(-0.889238, 122.510976)"><g><path d="M 12.140625 -25.453125 C 14.210938 -25.453125 16.019531 -25.082031 17.5625 -24.34375 C 19.113281 -23.613281 20.40625 -22.628906 21.4375 -21.390625 C 22.476562 -20.148438 23.253906 -18.765625 23.765625 -17.234375 C 24.285156 -15.710938 24.546875 -14.160156 24.546875 -12.578125 C 24.546875 -10.992188 24.285156 -9.457031 23.765625 -7.96875 C 23.253906 -6.476562 22.476562 -5.128906 21.4375 -3.921875 C 20.40625 -2.722656 19.113281 -1.769531 17.5625 -1.0625 C 16.019531 -0.351562 14.210938 0 12.140625 0 L 3.09375 0 L 3.09375 -25.453125 Z M 12.140625 -3.640625 C 14.085938 -3.640625 15.71875 -4.070312 17.03125 -4.9375 C 18.34375 -5.800781 19.320312 -6.914062 19.96875 -8.28125 C 20.613281 -9.65625 20.9375 -11.085938 20.9375 -12.578125 C 20.9375 -13.710938 20.75 -14.816406 20.375 -15.890625 C 20.007812 -16.972656 19.457031 -17.960938 18.71875 -18.859375 C 17.988281 -19.765625 17.078125 -20.484375 15.984375 -21.015625 C 14.890625 -21.546875 13.609375 -21.8125 12.140625 -21.8125 L 6.734375 -21.8125 L 6.734375 -3.640625 Z M 12.140625 -3.640625 "/></g></g></g><g fill="#737373" fill-opacity="1"><g transform="translate(25.569533, 122.510976)"><g><path d="M 21.84375 -10.59375 C 21.863281 -10.5 21.875 -10.40625 21.875 -10.3125 C 21.875 -10.21875 21.875 -10.109375 21.875 -9.984375 C 21.875 -9.597656 21.835938 -9.238281 21.765625 -8.90625 L 5.265625 -8.90625 C 5.265625 -7.632812 5.601562 -6.539062 6.28125 -5.625 C 6.96875 -4.707031 7.820312 -4.003906 8.84375 -3.515625 C 9.863281 -3.023438 10.859375 -2.78125 11.828125 -2.78125 C 13.023438 -2.78125 14.144531 -3.039062 15.1875 -3.5625 C 16.238281 -4.09375 17.050781 -4.910156 17.625 -6.015625 L 21.265625 -6.015625 C 20.785156 -4.597656 20.050781 -3.414062 19.0625 -2.46875 C 18.082031 -1.519531 16.960938 -0.8125 15.703125 -0.34375 C 14.441406 0.125 13.132812 0.359375 11.78125 0.359375 C 10.53125 0.359375 9.304688 0.148438 8.109375 -0.265625 C 6.910156 -0.691406 5.828125 -1.320312 4.859375 -2.15625 C 3.898438 -3 3.140625 -4.050781 2.578125 -5.3125 C 2.015625 -6.570312 1.734375 -8.046875 1.734375 -9.734375 C 1.734375 -11.410156 2.015625 -12.875 2.578125 -14.125 C 3.140625 -15.375 3.898438 -16.421875 4.859375 -17.265625 C 5.828125 -18.109375 6.910156 -18.738281 8.109375 -19.15625 C 9.304688 -19.582031 10.554688 -19.796875 11.859375 -19.796875 C 13.472656 -19.796875 15.015625 -19.453125 16.484375 -18.765625 C 17.960938 -18.078125 19.195312 -17.050781 20.1875 -15.6875 C 21.175781 -14.332031 21.726562 -12.632812 21.84375 -10.59375 Z M 18.125 -11.828125 C 17.914062 -13.003906 17.488281 -13.945312 16.84375 -14.65625 C 16.207031 -15.363281 15.453125 -15.878906 14.578125 -16.203125 C 13.703125 -16.523438 12.796875 -16.6875 11.859375 -16.6875 C 10.921875 -16.6875 10 -16.523438 9.09375 -16.203125 C 8.195312 -15.878906 7.414062 -15.351562 6.75 -14.625 C 6.09375 -13.90625 5.644531 -12.972656 5.40625 -11.828125 Z M 18.125 -11.828125 "/></g></g></g><g fill="#737373" fill-opacity="1"><g transform="translate(49.68523, 122.510976)"><g><path d="M 6.234375 -17.09375 C 6.953125 -18.144531 7.820312 -18.859375 8.84375 -19.234375 C 9.863281 -19.609375 10.988281 -19.796875 12.21875 -19.796875 C 14.21875 -19.796875 15.832031 -19.410156 17.0625 -18.640625 C 18.300781 -17.867188 19.210938 -16.785156 19.796875 -15.390625 C 20.390625 -13.992188 20.6875 -12.359375 20.6875 -10.484375 L 20.6875 0 L 17.1875 0 L 17.1875 -10.453125 C 17.1875 -11.679688 17.046875 -12.765625 16.765625 -13.703125 C 16.492188 -14.640625 15.976562 -15.363281 15.21875 -15.875 C 14.46875 -16.394531 13.382812 -16.65625 11.96875 -16.65625 C 10.738281 -16.65625 9.695312 -16.382812 8.84375 -15.84375 C 7.988281 -15.300781 7.335938 -14.570312 6.890625 -13.65625 C 6.453125 -12.75 6.234375 -11.726562 6.234375 -10.59375 L 6.234375 0 L 2.703125 0 L 2.703125 -19.5 L 6.234375 -19.5 Z M 6.234375 -17.09375 "/></g></g></g><g fill="#737373" fill-opacity="1"><g transform="translate(73.368361, 122.510976)"><g><path d="M 7.3125 -19.5 L 11.609375 -19.5 L 11.609375 -16.6875 L 7.3125 -16.6875 L 7.3125 -5.703125 C 7.3125 -4.546875 7.578125 -3.78125 8.109375 -3.40625 C 8.640625 -3.03125 9.347656 -2.84375 10.234375 -2.84375 C 10.453125 -2.84375 10.6875 -2.847656 10.9375 -2.859375 C 11.1875 -2.878906 11.445312 -2.898438 11.71875 -2.921875 L 11.71875 0.03125 C 11.425781 0.0625 11.144531 0.0820312 10.875 0.09375 C 10.613281 0.101562 10.351562 0.109375 10.09375 0.109375 C 8.820312 0.109375 7.707031 -0.0625 6.75 -0.40625 C 5.800781 -0.757812 5.066406 -1.351562 4.546875 -2.1875 C 4.035156 -3.03125 3.78125 -4.210938 3.78125 -5.734375 L 3.78125 -16.6875 L 0.859375 -16.6875 L 0.859375 -19.5 L 3.78125 -19.5 L 3.78125 -23.140625 L 7.3125 -23.828125 Z M 7.3125 -19.5 "/></g></g></g><g fill="#737373" fill-opacity="1"><g transform="translate(86.093113, 122.510976)"><g><path d="M 22.96875 0 L 19.421875 0 L 19.421875 -2.625 C 18.972656 -1.9375 18.347656 -1.375 17.546875 -0.9375 C 16.753906 -0.5 15.914062 -0.1875 15.03125 0 C 14.144531 0.1875 13.289062 0.296875 12.46875 0.328125 C 10.207031 0.328125 8.296875 -0.144531 6.734375 -1.09375 C 5.171875 -2.039062 3.988281 -3.289062 3.1875 -4.84375 C 2.382812 -6.394531 1.984375 -8.0625 1.984375 -9.84375 C 1.984375 -11.59375 2.390625 -13.222656 3.203125 -14.734375 C 4.023438 -16.253906 5.21875 -17.484375 6.78125 -18.421875 C 8.34375 -19.359375 10.21875 -19.828125 12.40625 -19.828125 C 13.21875 -19.828125 14.054688 -19.75 14.921875 -19.59375 C 15.785156 -19.4375 16.613281 -19.144531 17.40625 -18.71875 C 18.195312 -18.300781 18.882812 -17.695312 19.46875 -16.90625 L 19.421875 -19.5 L 22.96875 -19.5 Z M 19.421875 -9.765625 C 19.421875 -11.328125 19.066406 -12.617188 18.359375 -13.640625 C 17.648438 -14.660156 16.753906 -15.425781 15.671875 -15.9375 C 14.597656 -16.457031 13.507812 -16.71875 12.40625 -16.71875 C 10.976562 -16.71875 9.75 -16.410156 8.71875 -15.796875 C 7.6875 -15.191406 6.894531 -14.367188 6.34375 -13.328125 C 5.789062 -12.296875 5.515625 -11.132812 5.515625 -9.84375 C 5.515625 -8.613281 5.789062 -7.460938 6.34375 -6.390625 C 6.894531 -5.328125 7.679688 -4.460938 8.703125 -3.796875 C 9.722656 -3.140625 10.957031 -2.8125 12.40625 -2.8125 C 13.476562 -2.8125 14.554688 -3.0625 15.640625 -3.5625 C 16.722656 -4.070312 17.625 -4.84375 18.34375 -5.875 C 19.0625 -6.90625 19.421875 -8.203125 19.421875 -9.765625 Z M 19.421875 -9.765625 "/></g></g></g><g fill="#737373" fill-opacity="1"><g transform="translate(111.722798, 122.510976)"><g><path d="M 2.703125 0 L 2.703125 -25.234375 L 6.234375 -25.234375 L 6.234375 0 Z M 2.703125 0 "/></g></g></g><g fill="#737373" fill-opacity="1"><g transform="translate(120.987003, 122.510976)"><g><path d="M 2.484375 -24.515625 C 2.484375 -25.179688 2.71875 -25.679688 3.1875 -26.015625 C 3.65625 -26.359375 4.164062 -26.53125 4.71875 -26.53125 C 5.269531 -26.53125 5.769531 -26.367188 6.21875 -26.046875 C 6.664062 -25.722656 6.890625 -25.210938 6.890625 -24.515625 C 6.890625 -23.835938 6.660156 -23.320312 6.203125 -22.96875 C 5.742188 -22.625 5.238281 -22.453125 4.6875 -22.453125 C 4.15625 -22.453125 3.65625 -22.625 3.1875 -22.96875 C 2.71875 -23.320312 2.484375 -23.835938 2.484375 -24.515625 Z M 2.921875 -19.71875 L 2.921875 0 L 6.453125 0 L 6.453125 -19.71875 Z M 2.921875 -19.71875 "/></g></g></g><g fill="#737373" fill-opacity="1"><g transform="translate(131.008201, 122.510976)"><g><path d="M 5.15625 -13.875 C 5.15625 -13.28125 5.304688 -12.8125 5.609375 -12.46875 C 5.910156 -12.132812 6.300781 -11.894531 6.78125 -11.75 C 7.257812 -11.601562 7.753906 -11.507812 8.265625 -11.46875 C 8.785156 -11.4375 9.265625 -11.410156 9.703125 -11.390625 C 10.609375 -11.316406 11.523438 -11.175781 12.453125 -10.96875 C 13.378906 -10.769531 14.226562 -10.457031 15 -10.03125 C 15.769531 -9.613281 16.390625 -9.035156 16.859375 -8.296875 C 17.328125 -7.566406 17.5625 -6.648438 17.5625 -5.546875 C 17.5625 -4.421875 17.3125 -3.476562 16.8125 -2.71875 C 16.320312 -1.96875 15.671875 -1.367188 14.859375 -0.921875 C 14.054688 -0.472656 13.175781 -0.15625 12.21875 0.03125 C 11.257812 0.226562 10.320312 0.328125 9.40625 0.328125 C 8.0625 0.328125 6.796875 0.125 5.609375 -0.28125 C 4.421875 -0.695312 3.441406 -1.363281 2.671875 -2.28125 C 1.898438 -3.207031 1.46875 -4.441406 1.375 -5.984375 L 4.90625 -5.984375 C 4.976562 -4.898438 5.457031 -4.085938 6.34375 -3.546875 C 7.226562 -3.003906 8.273438 -2.734375 9.484375 -2.734375 C 10.078125 -2.734375 10.722656 -2.8125 11.421875 -2.96875 C 12.117188 -3.125 12.722656 -3.410156 13.234375 -3.828125 C 13.753906 -4.253906 14.015625 -4.851562 14.015625 -5.625 C 14.015625 -6.175781 13.851562 -6.613281 13.53125 -6.9375 C 13.207031 -7.257812 12.789062 -7.507812 12.28125 -7.6875 C 11.78125 -7.875 11.265625 -8.003906 10.734375 -8.078125 C 10.210938 -8.148438 9.734375 -8.195312 9.296875 -8.21875 C 8.429688 -8.269531 7.546875 -8.382812 6.640625 -8.5625 C 5.742188 -8.738281 4.914062 -9.03125 4.15625 -9.4375 C 3.40625 -9.851562 2.800781 -10.414062 2.34375 -11.125 C 1.882812 -11.832031 1.65625 -12.726562 1.65625 -13.8125 C 1.65625 -15.320312 2.039062 -16.519531 2.8125 -17.40625 C 3.582031 -18.300781 4.566406 -18.9375 5.765625 -19.3125 C 6.960938 -19.695312 8.1875 -19.890625 9.4375 -19.890625 C 10.738281 -19.890625 11.941406 -19.695312 13.046875 -19.3125 C 14.148438 -18.9375 15.0625 -18.328125 15.78125 -17.484375 C 16.507812 -16.640625 16.910156 -15.535156 16.984375 -14.171875 L 13.484375 -14.171875 C 13.390625 -15.035156 12.9375 -15.675781 12.125 -16.09375 C 11.320312 -16.507812 10.394531 -16.71875 9.34375 -16.71875 C 8.257812 -16.71875 7.289062 -16.492188 6.4375 -16.046875 C 5.582031 -15.609375 5.15625 -14.882812 5.15625 -13.875 Z M 5.15625 -13.875 "/></g></g></g></svg>