<svg xmlns="http://www.w3.org/2000/svg" version="1.1" xmlns:xlink="http://www.w3.org/1999/xlink" width="512" height="512" x="0" y="0" viewBox="0 0 492 492" style="enable-background:new 0 0 512 512" xml:space="preserve" class=""><g><g fill-rule="evenodd" clip-rule="evenodd"><path fill="#ebecff" d="M336.55 229.879v.439c0 20.351-14.858 40.175-17.787 59.232-6.799 44.254-7.741 84.375-27.42 117.387a254.566 254.566 0 0 1-11.427 17.518c-8.133 11.397-25.979 7.277-28.415-6.507-11.184-63.264-27.842-117.98-46.443-117.98-18.606 0-35.261 54.717-46.445 117.982-2.436 13.785-20.283 17.902-28.413 6.508a254.174 254.174 0 0 1-11.432-17.52c-19.68-33.011-20.621-73.133-27.42-117.387-2.929-19.057-17.787-38.881-17.787-59.232v-.439c.037-33.933 20.844-64.591 52.529-76.743 8.721-3.343 17.738-5.098 26.966-5.098 15.814 0 31.006 7.231 45.158 17.3a11.793 11.793 0 0 0 13.684 0c14.153-10.069 29.344-17.3 45.161-17.3 7.763 0 15.378 1.241 22.795 3.628a80.95 80.95 0 0 1 16.596 7.496c24.584 14.616 40.068 41.448 40.1 70.716z" opacity="1" data-original="#ebecff" class=""></path><g fill="#e3783a"><path d="M352.049 133.253a3.922 3.922 0 0 1-2.773-6.695l28.711-28.71a3.922 3.922 0 1 1 5.546 5.546l-28.711 28.711a3.913 3.913 0 0 1-2.773 1.148zM326.738 110.866a3.922 3.922 0 0 1-3.922-3.922V66.341a3.922 3.922 0 0 1 7.844 0v40.603a3.922 3.922 0 0 1-3.922 3.922zM415.039 158.563h-40.603a3.922 3.922 0 0 1 0-7.844h40.603a3.922 3.922 0 0 1 0 7.844z" fill="#1ba6be" opacity="1" data-original="#e3783a" class=""></path></g><path fill="#36454f" d="m266.66 204.785 1.186-.787 18.241-12.103 10.363-32.734a81.09 81.09 0 0 0-16.596-7.496l-3.044 31.18-12.334 11.973-9.339 9.069-27.795 26.986 29.79-19.765 1.505 2.53 29.435 49.499-20.37-55.514z" opacity="1" data-original="#b1b2bd" class=""></path></g></g></svg>