<svg xmlns="http://www.w3.org/2000/svg" version="1.1" xmlns:xlink="http://www.w3.org/1999/xlink" width="512" height="512" x="0" y="0" viewBox="0 0 256 256" style="enable-background:new 0 0 512 512" xml:space="preserve" class=""><g><path fill="#45decc" d="M212.922 53.824c-19.587-11.978-38.895-20.19-54.939-20.19-18.272 0-26.766 5.276-27.996 7.067-1.231-1.791-9.724-7.067-27.995-7.067-16.045 0-35.352 8.213-54.939 20.19C30.818 63.755 9.986 66.152 9.986 66.152S32.297 170.3 130.308 170.3 249.986 66.152 249.986 66.152s-20.832-2.397-37.064-12.328z" opacity="1" data-original="#d10028" class=""></path><path fill="#2cbfae" d="M130.322 148.911c-20.089 0-37.123-3.361-51.528-8.76-1.111-.416-1.889 1.124-.898 1.775 13.594 8.921 30.772 14.984 52.359 14.984 21.478 0 38.553-6.004 52.06-14.852.992-.65.216-2.19-.895-1.776-14.288 5.322-31.177 8.629-51.098 8.629z" opacity="1" data-original="#e63950" class=""></path><path fill="#00bca6" d="M249.03 70.013c.662-2.458.956-3.861.956-3.861s-75.91 8.617-120 8.617-120-8.617-120-8.617.303 1.405.981 3.865c13.484 1.955 64.309 8.752 119.019 8.752 54.743 0 105.597-6.806 119.044-8.756z" opacity="1" data-original="#b7022d" class=""></path><path fill="#00bca6" d="M243.99 65.163C238.816 84.261 211.773 165.3 125.308 165.3c-35.061 0-60.431-13.329-78.561-30.449 18.371 19.453 45.152 35.449 83.561 35.449 98.011 0 119.678-104.148 119.678-104.148s-2.317-.268-5.996-.989z" opacity="1" data-original="#b7022d" class=""></path><path fill="#2cbfae" d="M100.824 51.023c19.033 0 27.879 4.396 29.162 5.889 1.282-1.493 10.129-5.889 29.163-5.889 8.005 0 16.792 1.576 26.016 4.313 1.171.347 1.823-1.308.731-1.854-11.662-5.828-22.841-9.458-32.579-9.458-15.227 0-22.305 4.396-23.33 5.889-1.026-1.493-8.103-5.889-23.329-5.889-9.738 0-20.917 3.63-32.579 9.458-1.093.546-.44 2.202.731 1.854 9.223-2.737 18.009-4.313 26.014-4.313z" opacity="1" data-original="#e63950" class=""></path><path fill="#00bca6" d="M17.85 71.496s53.647 7.273 112.137 7.273 112.137-7.273 112.137-7.273-33.53 61.804-112.138 61.804S17.85 71.496 17.85 71.496z" opacity="1" data-original="#b7022d" class=""></path><path fill="#414042" d="M17.85 71.496s53.647 7.273 112.137 7.273 112.137-7.273 112.137-7.273-33.53 53.804-112.138 53.804S17.85 71.496 17.85 71.496z" opacity="1" data-original="#414042"></path><path fill="#2cbfae" d="M17.85 71.496s53.647 7.273 112.137 7.273 112.137-7.273 112.137-7.273-33.53 33.804-112.138 33.804S17.85 71.496 17.85 71.496z" opacity="1" data-original="#e63950" class=""></path><path fill="#ffffff" d="m156.291 122.8-17.593 1.571c-4.681.418-8.712-3.269-8.712-7.968V90.769c0-6.627 5.373-12 12-12h13.593a8 8 0 0 1 8 8v28.063a7.998 7.998 0 0 1-7.288 7.968z" opacity="1" data-original="#ffffff" class=""></path><path fill="#e6e7e8" d="M158.15 79.199c.274.808.43 1.67.43 2.57v28.063c0 4.143-3.162 7.6-7.288 7.968l-17.593 1.571a7.967 7.967 0 0 1-3.286-.393c1.151 3.389 4.505 5.731 8.286 5.393l17.593-1.571a8 8 0 0 0 7.288-7.968V86.769c0-3.518-2.274-6.499-5.43-7.57z" opacity="1" data-original="#e6e7e8" class=""></path><path fill="#ffffff" d="m189.631 112.968-15.407 5.396c-5.202 1.822-10.644-2.039-10.644-7.55V90.029a12.001 12.001 0 0 1 11.237-11.976l11.661-.743c4.609-.294 8.508 3.366 8.508 7.984v20.122a8 8 0 0 1-5.355 7.552z" opacity="1" data-original="#ffffff" class=""></path><path fill="#e6e7e8" d="M189.561 77.726c.273.806.426 1.668.426 2.569v20.123a8 8 0 0 1-5.356 7.55l-15.407 5.396a7.906 7.906 0 0 1-5.214.015c1.369 4.057 5.87 6.506 10.214 4.985l15.407-5.396a8 8 0 0 0 5.356-7.55V85.295c-.001-3.535-2.288-6.5-5.426-7.569z" opacity="1" data-original="#e6e7e8" class=""></path><path fill="#ffffff" d="m217.988 95.908-13.74 8.9c-3.992 2.586-9.262-.28-9.262-5.036V87.59a12 12 0 0 1 10.839-11.944l8.321-.809a6 6 0 0 1 6.58 5.972v10.063c0 2.035-1.03 3.93-2.738 5.036z" opacity="1" data-original="#ffffff" class=""></path><path fill="#e6e7e8" d="M216.465 75.072c.166.55.262 1.131.262 1.738v10.063a6.001 6.001 0 0 1-2.738 5.036l-13.74 8.9a5.9 5.9 0 0 1-5.013.693c1.085 3.672 5.533 5.561 9.013 3.307l13.74-8.9a6.001 6.001 0 0 0 2.738-5.036V80.81c-.001-2.73-1.817-4.996-4.262-5.738z" opacity="1" data-original="#e6e7e8" class=""></path><path fill="#ffffff" d="M242.123 71.496s-5.68.853-15.352 2.005a7.996 7.996 0 0 0-6.044 7.75v3.166c0 3.421 4.015 5.263 6.608 3.032l6.873-5.912c5.354-5.936 7.915-10.041 7.915-10.041z" opacity="1" data-original="#ffffff" class=""></path><path fill="#e6e7e8" d="M236.42 72.289a101.307 101.307 0 0 1-5.212 6.25l-6.873 5.912a3.916 3.916 0 0 1-3.502.859c.626 2.827 4.146 4.167 6.502 2.141l6.873-5.912c5.354-5.937 7.915-10.042 7.915-10.042s-2.029.304-5.703.792z" opacity="1" data-original="#e6e7e8" class=""></path><path fill="#ffffff" d="m103.681 122.8 17.593 1.571c4.681.418 8.712-3.269 8.712-7.968V90.769c0-6.627-5.373-12-12-12h-13.593a8 8 0 0 0-8 8v28.063c0 4.143 3.162 7.6 7.288 7.968z" opacity="1" data-original="#ffffff" class=""></path><path fill="#e6e7e8" d="M123.593 80.163a11.936 11.936 0 0 1 1.394 5.606v25.634c0 4.699-4.031 8.386-8.712 7.968L98.681 117.8a7.963 7.963 0 0 1-1.857-.4 7.997 7.997 0 0 0 6.857 5.4l17.593 1.571c4.681.418 8.712-3.269 8.712-7.968V90.769c0-4.601-2.592-8.593-6.393-10.606z" opacity="1" data-original="#e6e7e8" class=""></path><path fill="#ffffff" d="m70.342 112.968 15.407 5.396c5.202 1.822 10.644-2.039 10.644-7.55V90.029a12.001 12.001 0 0 0-11.237-11.976l-11.661-.743c-4.609-.294-8.508 3.366-8.508 7.984v20.122a8 8 0 0 0 5.355 7.552z" opacity="1" data-original="#ffffff" class=""></path><path fill="#e6e7e8" d="M90.602 79.761c.507 1.329.792 2.767.792 4.269v20.784c0 5.511-5.443 9.372-10.644 7.55l-15.407-5.396c-.073-.025-.137-.064-.208-.092a7.99 7.99 0 0 0 5.208 6.092l15.407 5.396c5.202 1.822 10.644-2.039 10.644-7.55V90.029a11.998 11.998 0 0 0-5.792-10.268z" opacity="1" data-original="#e6e7e8" class=""></path><path fill="#ffffff" d="m41.984 95.908 13.74 8.9c3.992 2.586 9.262-.28 9.262-5.036V87.59a12 12 0 0 0-10.839-11.944l-8.321-.809a6 6 0 0 0-6.58 5.972v10.063a6 6 0 0 0 2.738 5.036z" opacity="1" data-original="#ffffff" class=""></path><path fill="#e6e7e8" d="M60.797 78.494c.121.682.19 1.381.19 2.096v12.182c0 4.756-5.27 7.622-9.262 5.036l-12.478-8.083v1.147a6.001 6.001 0 0 0 2.738 5.036l13.74 8.9c3.992 2.586 9.262-.279 9.262-5.036V87.59a11.98 11.98 0 0 0-4.19-9.096z" opacity="1" data-original="#e6e7e8" class=""></path><path fill="#ffffff" d="M32.638 87.45c2.593 2.231 6.608.388 6.608-3.032v-3.166a7.995 7.995 0 0 0-6.044-7.75C23.53 72.35 17.85 71.496 17.85 71.496s2.561 4.105 7.915 10.042z" opacity="1" data-original="#ffffff" class=""></path><path fill="#e6e7e8" d="M37.246 75.974v2.444c0 3.421-4.015 5.263-6.608 3.032l-6.873-5.912a104.676 104.676 0 0 1-3.143-3.647c-1.799-.25-2.772-.395-2.772-.395s2.561 4.105 7.915 10.042l6.873 5.912c2.593 2.231 6.608.388 6.608-3.032v-3.166a7.958 7.958 0 0 0-2-5.278z" opacity="1" data-original="#e6e7e8" class=""></path><g fill="#ffc91d"><path d="m233.334 16.459 1.087 5.062a13.826 13.826 0 0 0 10.615 10.615l5.062 1.087c1.22.262 1.22 2.004 0 2.266l-5.062 1.087a13.826 13.826 0 0 0-10.615 10.615l-1.087 5.062c-.262 1.22-2.004 1.22-2.266 0l-1.087-5.062a13.826 13.826 0 0 0-10.615-10.615l-5.062-1.087c-1.22-.262-1.22-2.004 0-2.266l5.062-1.087a13.826 13.826 0 0 0 10.615-10.615l1.087-5.062c.262-1.22 2.004-1.22 2.266 0zM195.218 9.683l.765 3.56a9.723 9.723 0 0 0 7.466 7.466l3.56.765c.858.184.858 1.409 0 1.593l-3.56.765a9.723 9.723 0 0 0-7.466 7.466l-.765 3.56c-.184.858-1.409.858-1.593 0l-.765-3.56a9.723 9.723 0 0 0-7.466-7.466l-3.56-.765c-.858-.184-.858-1.409 0-1.593l3.56-.765a9.723 9.723 0 0 0 7.466-7.466l.765-3.56c.184-.858 1.409-.858 1.593 0zM207.654 52.748l.483 2.248a6.139 6.139 0 0 0 4.714 4.714l2.248.483c.542.116.542.89 0 1.006l-2.248.483a6.139 6.139 0 0 0-4.714 4.714l-.483 2.248c-.116.542-.89.542-1.006 0l-.483-2.248a6.139 6.139 0 0 0-4.714-4.714l-2.248-.483c-.542-.116-.542-.89 0-1.006l2.248-.483a6.139 6.139 0 0 0 4.714-4.714l.483-2.248c.116-.542.89-.542 1.006 0z" fill="#ffc91d" opacity="1" data-original="#ffc91d" class=""></path></g><circle cx="56.32" cy="195.627" r="51.333" fill="#2cbfae" opacity="1" data-original="#5e9cf7" class=""></circle><circle cx="56.32" cy="195.627" r="40.741" fill="#45decc" opacity="1" data-original="#478cf7" class=""></circle><path fill="#2cbfae" d="m21.599 196.467-.067-.001a2 2 0 0 1-1.933-2.065c.532-16.118 11.336-29.854 26.886-34.178a1.999 1.999 0 1 1 1.071 3.853c-13.857 3.854-23.486 16.093-23.959 30.456a2 2 0 0 1-1.998 1.935z" opacity="1" data-original="#5e9cf7" class=""></path><circle cx="55.583" cy="161.25" r="2" fill="#2cbfae" opacity="1" data-original="#5e9cf7" class=""></circle><path fill="#45decc" d="M79.685 162.262a40.541 40.541 0 0 1 7.375 23.366c0 22.5-18.24 40.741-40.741 40.741a40.538 40.538 0 0 1-23.365-7.375c7.369 10.503 19.561 17.375 33.365 17.375 22.5 0 40.741-18.24 40.741-40.741 0-13.805-6.872-25.997-17.375-33.366z" opacity="1" data-original="#377de2" class=""></path><path fill="#45decc" d="M82.515 164.432c5.954 7.083 9.546 16.218 9.546 26.195 0 22.5-18.24 40.741-40.741 40.741-9.977 0-19.112-3.592-26.195-9.546 7.473 8.891 18.672 14.546 31.195 14.546 22.5 0 40.741-18.24 40.741-40.741-.001-12.523-5.656-23.721-14.546-31.195z" opacity="1" data-original="#2266d3" class=""></path><path fill="#f1f2f2" d="M80.074 199.439a4.044 4.044 0 0 0-4.043-4.044h.551a3.963 3.963 0 0 0 0-7.926H62.754c-1.805 0-2.143-1.43-1.498-3.333.636-1.877 1.306-2.816 1.306-5.739 0-3.661-2.139-8.344-5.741-8.344-2.234 0-1.444 4.999-4.569 11.852-1.197 2.626-3.712 6.497-5.781 9.218a2.4 2.4 0 0 0-2.25-1.576h-8.579a2.405 2.405 0 0 0-2.406 2.406v23.467a2.406 2.406 0 0 0 2.406 2.406h8.579a2.408 2.408 0 0 0 2.406-2.406v-1.238a7.628 7.628 0 0 0 6.505 3.641c7.461-.003 16.92-.006 21.355-.009a3.414 3.414 0 0 0 3.412-3.416v-.005a3.418 3.418 0 0 0-3.366-3.416l1.359.002a3.746 3.746 0 1 0 .006-7.494h-1.696l1.836-.003a4.043 4.043 0 0 0 4.036-4.043z" opacity="1" data-original="#f1f2f2"></path></g></svg>