<svg xmlns="http://www.w3.org/2000/svg" version="1.1" xmlns:xlink="http://www.w3.org/1999/xlink" width="512" height="512" x="0" y="0" viewBox="0 0 512 512" style="enable-background:new 0 0 512 512" xml:space="preserve" class=""><g><linearGradient id="a" x1="256" x2="256" y1="434.272" y2="77.728" gradientUnits="userSpaceOnUse"><stop stop-opacity="1" stop-color="#0e384c" offset="0"></stop><stop stop-opacity="1" stop-color="#039be5" offset="1"></stop></linearGradient><path fill="url(#a)" d="M120 77.728c-66.182 0-120 53.833-120 120 0 60.41 44.854 110.537 103.037 118.799-4.658 33.838-17.578 66.035-37.764 93.955-3.926 5.449-3.779 12.832.41 18.105 4.11 5.189 11.252 7.156 17.52 4.512C178.447 393.344 240 300.941 240 197.728c0-66.167-53.818-120-120-120zm272 0c-66.182 0-120 53.833-120 120 0 60.41 44.854 110.537 103.037 118.799-4.658 33.838-17.578 66.035-37.764 93.955-3.926 5.449-3.779 12.832.41 18.105 4.11 5.189 11.252 7.156 17.52 4.512C450.447 393.344 512 300.941 512 197.728c0-66.167-53.818-120-120-120z" opacity="1" data-original="url(#a)" class=""></path></g></svg>