<svg id="Layer_1" enable-background="new 0 0 512 512" height="512" viewBox="0 0 512 512" width="512" xmlns="http://www.w3.org/2000/svg"><g><path clip-rule="evenodd" d="m244.859 363.342c-71.13 234.571-121.999 114.383-128.005-85.385-108.778-140.593-14.139-321.536 137.863-199.048 151.974-122.487 246.641 58.456 137.834 199.049-6.007 199.767-56.875 319.955-128.005 85.385-1.322-4.426-5.231-7.329-9.829-7.329-4.627 0-8.507 2.902-9.858 7.328z" fill="#e7eced" fill-rule="evenodd"/><path d="m266.385 70.057c11.093 8.421 22.445 15.059 33.97 20.089 13.881 6.093 28.078 9.886 42.506 11.812l-1.839 14.054c-15.72-2.098-31.182-6.236-46.328-12.875-13.594-5.949-26.929-13.91-39.976-24.227 3.936-3.192 7.816-6.094 11.667-8.853z" fill="#d7dadb"/><path clip-rule="evenodd" d="m449.972 347.334 14.859 29.487 29.486 14.858-29.486 14.83-14.859 29.486-14.858-29.486-29.487-14.83 29.487-14.858z" fill="#b2caec" fill-rule="evenodd"/><path clip-rule="evenodd" d="m184.018 488.243c-38.051 25.291-63.054-73.946-67.164-210.286-86.936-112.37-43.942-250.463 54.404-238.91-81.878 10.404-111.825 135.535-31.843 238.91 3.218 107.198 19.37 191.462 44.603 210.286z" fill="#d7dadb" fill-rule="evenodd"/><path d="m410.714 65.459 3.219-.69c23.279-5.144 43.425-6.926 59.088-5.058 16.611 1.983 28.624 8.076 34.746 18.681 6.007 10.375 5.489 23.423-.718 38.281-5.834 14.025-16.87 29.975-32.246 47.018l-4.742 5.288-10.519-9.484 4.742-5.288c14.312-15.864 24.457-30.464 29.688-42.965 4.455-10.691 5.173-19.485 1.552-25.75-3.736-6.438-12.099-10.26-24.17-11.697-13.364-1.581-30.751-.115-51.127 4.11-2.874-4.457-6.035-8.624-9.513-12.446zm-91.247 202.124 6.035-3.679 7.386 12.071-6.064 3.707c-1.954 1.178-4.311 2.587-7.012 4.138-25.98 15.002-86.391 46.73-144.674 67.681-60.64 21.842-119.383 31.728-138.696.029l-.431-.747c-7.271-12.559-4.886-29.199 5.518-48.282 9.915-18.192 27.302-39.086 50.553-61.014l.948-.891c2.184 4.282 4.57 8.536 7.099 12.789-21.382 20.347-37.246 39.459-46.184 55.869-7.961 14.628-10.26 26.526-5.69 34.43v.029c.086.172 0-.029.287.46 14.657 24.055 66.963 13.766 121.826-5.978 57.22-20.577 116.711-51.817 142.346-66.618 2.643-1.523 4.914-2.874 6.753-3.994z" fill="#45decc"/><g clip-rule="evenodd" fill-rule="evenodd"><path d="m408.674 328.682c52.651 0 95.587-42.937 95.587-95.587s-42.937-95.616-95.587-95.616-95.616 42.965-95.616 95.616 42.965 95.587 95.616 95.587z" fill="#2cbfae"/><path d="m392.321 176.479h32.706v40.264h40.235v32.705h-40.235v40.264h-32.706v-40.264h-40.264v-32.705h40.264z" fill="#f1eff0"/><path d="m71.992 19.763 24.112 47.88 47.88 24.112-47.88 24.112-24.112 47.88-24.112-47.88-47.88-24.112 47.88-24.112z" fill="#b2caec"/></g></g></svg>